<svg width="720" height="160" viewBox="0 0 720 160" fill="none" xmlns="http://www.w3.org/2000/svg">
<path d="M285.584 126.224C276.155 126.224 267.904 124.229 260.832 120.24C253.76 116.251 248.32 110.539 244.512 103.104C240.704 95.6693 238.8 86.9653 238.8 76.992C238.8 67.0187 240.704 58.36 244.512 51.016C248.32 43.5813 253.76 37.8693 260.832 33.88C267.904 29.8907 276.155 27.896 285.584 27.896C297.461 27.896 307.707 31.16 316.32 37.688C317.68 38.776 318.632 39.864 319.176 40.952C319.72 42.04 319.992 43.4 319.992 45.032C319.992 47.3893 319.312 49.4293 317.952 51.152C316.683 52.784 315.096 53.6 313.192 53.6C311.923 53.6 310.789 53.464 309.792 53.192C308.885 52.8293 307.843 52.24 306.664 51.424C303.037 49.0667 299.683 47.3893 296.6 46.392C293.517 45.304 290.208 44.76 286.672 44.76C277.968 44.76 271.395 47.48 266.952 52.92C262.6 58.2693 260.424 66.2933 260.424 76.992C260.424 98.5707 269.173 109.36 286.672 109.36C290.027 109.36 293.2 108.861 296.192 107.864C299.184 106.776 302.675 105.053 306.664 102.696C308.024 101.88 309.157 101.336 310.064 101.064C310.971 100.701 312.013 100.52 313.192 100.52C315.096 100.52 316.683 101.381 317.952 103.104C319.312 104.736 319.992 106.731 319.992 109.088C319.992 110.72 319.675 112.125 319.04 113.304C318.496 114.392 317.589 115.435 316.32 116.432C307.707 122.96 297.461 126.224 285.584 126.224ZM336.956 125.816C333.964 125.816 331.471 125 329.476 123.368C327.572 121.736 326.62 119.333 326.62 116.16V38.096C326.62 34.9227 327.572 32.52 329.476 30.888C331.471 29.256 333.964 28.44 336.956 28.44C339.857 28.44 342.26 29.256 344.164 30.888C346.159 32.52 347.156 34.9227 347.156 38.096V116.16C347.156 119.333 346.159 121.736 344.164 123.368C342.26 125 339.857 125.816 336.956 125.816ZM388.174 126.088C381.102 126.088 374.891 124.683 369.542 121.872C364.192 118.971 360.067 114.936 357.166 109.768C354.264 104.509 352.814 98.344 352.814 91.272C352.814 84.2 354.264 78.08 357.166 72.912C360.067 67.6533 364.192 63.6187 369.542 60.808C374.891 57.9973 381.102 56.592 388.174 56.592C395.246 56.592 401.456 57.9973 406.806 60.808C412.155 63.6187 416.28 67.6533 419.182 72.912C422.083 78.08 423.534 84.2 423.534 91.272C423.534 98.344 422.083 104.509 419.182 109.768C416.28 114.936 412.155 118.971 406.806 121.872C401.456 124.683 395.246 126.088 388.174 126.088ZM388.174 110.448C398.147 110.448 403.134 104.056 403.134 91.272C403.134 84.8347 401.819 80.0293 399.19 76.856C396.651 73.6827 392.979 72.096 388.174 72.096C378.2 72.096 373.214 78.488 373.214 91.272C373.214 104.056 378.2 110.448 388.174 110.448ZM483.903 56.864C487.076 56.864 489.569 57.7253 491.383 59.448C493.287 61.1707 494.239 63.528 494.239 66.52V116.432C494.239 119.243 493.241 121.509 491.247 123.232C489.343 124.955 486.849 125.816 483.767 125.816C480.865 125.816 478.553 125 476.831 123.368C475.108 121.736 474.247 119.56 474.247 116.84V115.48C472.161 118.925 469.396 121.555 465.951 123.368C462.596 125.181 458.788 126.088 454.527 126.088C446.095 126.088 439.793 123.776 435.623 119.152C431.543 114.437 429.503 107.365 429.503 97.936V66.52C429.503 63.528 430.409 61.1707 432.223 59.448C434.127 57.7253 436.665 56.864 439.839 56.864C443.012 56.864 445.505 57.7253 447.319 59.448C449.132 61.1707 450.039 63.528 450.039 66.52V98.344C450.039 102.333 450.855 105.28 452.487 107.184C454.209 109.088 456.793 110.04 460.239 110.04C464.228 110.04 467.447 108.68 469.895 105.96C472.433 103.24 473.703 99.6587 473.703 95.216V66.52C473.703 63.528 474.609 61.1707 476.423 59.448C478.236 57.7253 480.729 56.864 483.903 56.864ZM560.181 28.44C563.354 28.44 565.893 29.3013 567.797 31.024C569.791 32.7467 570.789 35.0133 570.789 37.824V116.16C570.789 119.061 569.837 121.419 567.933 123.232C566.119 124.955 563.671 125.816 560.589 125.816C557.506 125.816 555.013 124.955 553.109 123.232C551.295 121.419 550.389 119.061 550.389 116.16V115.072C548.394 118.517 545.538 121.237 541.821 123.232C538.194 125.136 534.069 126.088 529.445 126.088C523.733 126.088 518.61 124.637 514.077 121.736C509.634 118.744 506.143 114.619 503.605 109.36C501.157 104.011 499.933 97.8907 499.933 91C499.933 84.1093 501.157 78.08 503.605 72.912C506.143 67.6533 509.634 63.6187 514.077 60.808C518.519 57.9973 523.642 56.592 529.445 56.592C533.978 56.592 538.058 57.544 541.685 59.448C545.402 61.352 548.258 64.0267 550.253 67.472V37.416C550.253 34.696 551.159 32.52 552.973 30.888C554.786 29.256 557.189 28.44 560.181 28.44ZM535.429 110.448C540.234 110.448 543.906 108.816 546.445 105.552C549.074 102.197 550.389 97.4373 550.389 91.272C550.389 85.1067 549.074 80.392 546.445 77.128C543.906 73.864 540.234 72.232 535.429 72.232C530.623 72.232 526.906 73.864 524.277 77.128C521.647 80.3013 520.333 84.9253 520.333 91C520.333 97.1653 521.647 101.971 524.277 105.416C526.906 108.771 530.623 110.448 535.429 110.448ZM633.387 105.144C635.2 105.144 636.651 105.869 637.739 107.32C638.918 108.771 639.507 110.629 639.507 112.896C639.507 114.437 639.054 115.888 638.147 117.248C637.24 118.517 635.971 119.605 634.339 120.512C631.256 122.144 627.675 123.504 623.595 124.592C619.515 125.589 615.752 126.088 612.307 126.088C605.054 126.088 598.707 124.683 593.267 121.872C587.918 119.061 583.792 115.072 580.891 109.904C577.99 104.645 576.539 98.48 576.539 91.408C576.539 84.608 577.944 78.5787 580.755 73.32C583.566 68.0613 587.464 63.9813 592.451 61.08C597.438 58.088 603.104 56.592 609.451 56.592C615.526 56.592 620.83 57.952 625.363 60.672C629.987 63.3013 633.568 67.1093 636.107 72.096C638.646 76.992 639.915 82.7493 639.915 89.368C639.915 91.3627 639.416 92.904 638.419 93.992C637.512 94.9893 636.198 95.488 634.475 95.488H596.395C597.03 100.837 598.662 104.736 601.291 107.184C603.92 109.541 607.683 110.72 612.579 110.72C615.208 110.72 617.566 110.403 619.651 109.768C621.736 109.133 624.048 108.272 626.587 107.184C627.856 106.64 629.08 106.187 630.259 105.824C631.438 105.371 632.48 105.144 633.387 105.144ZM609.995 70.736C606.096 70.736 602.968 72.0053 600.611 74.544C598.254 76.992 596.848 80.5733 596.395 85.288H622.643C622.371 80.4827 621.147 76.856 618.971 74.408C616.886 71.96 613.894 70.736 609.995 70.736ZM691.759 62.712C692.575 60.808 693.708 59.4027 695.159 58.496C696.7 57.5893 698.332 57.136 700.055 57.136C702.684 57.136 704.996 57.9973 706.991 59.72C708.985 61.352 709.983 63.3467 709.983 65.704C709.983 66.9733 709.665 68.2427 709.031 69.512L672.447 144.584C671.54 146.488 670.316 147.893 668.775 148.8C667.233 149.797 665.601 150.296 663.879 150.296C661.34 150.296 659.119 149.48 657.215 147.848C655.311 146.216 654.359 144.221 654.359 141.864C654.359 140.413 654.676 139.053 655.311 137.784L664.287 119.152L640.079 69.512C639.535 68.2427 639.263 67.0187 639.263 65.84C639.263 63.392 640.305 61.3067 642.391 59.584C644.567 57.8613 647.015 57 649.735 57C651.548 57 653.225 57.4987 654.767 58.496C656.308 59.4027 657.532 60.808 658.439 62.712L675.303 99.432L691.759 62.712Z" fill="#FAFAFB"/>
<path fill-rule="evenodd" clip-rule="evenodd" d="M66.1505 126.738C72.3832 126.1 73.556 118.35 69.2986 113.753C57.3211 100.822 50 83.516 50 64.4999C50 55.8874 51.5018 47.6256 54.2577 39.9622C56.3803 34.06 52.2681 27.3591 46.2733 29.204C25.8468 35.4903 11 54.5113 11 76.9999C11 104.614 33.3858 127 61 127C62.739 127 64.4573 126.911 66.1505 126.738Z" fill="#002999"/>
<path fill-rule="evenodd" clip-rule="evenodd" d="M169.89 23.7502C174.698 29.3368 169.984 37.2574 163 39.6146C143.233 46.2866 129 64.9811 129 86.9999C129 95.4681 131.105 103.445 134.821 110.435C138.278 116.939 136.255 125.925 128.928 126.674C126.814 126.889 124.67 127 122.5 127C87.9822 127 60 99.0178 60 64.5C60 29.9822 87.9822 2 122.5 2C141.449 2 158.428 10.4328 169.89 23.7502Z" fill="#0036CC"/>
<circle cx="179" cy="87" r="40" fill="#0044FF"/>
</svg>
